<svg width="14" height="14" viewBox="0 0 14 14" fill="none" xmlns="http://www.w3.org/2000/svg">
<path d="M13.647 6.17741L10.8345 8.60429L11.6914 12.2337C11.7386 12.4307 11.7265 12.6373 11.6564 12.8274C11.5863 13.0175 11.4614 13.1826 11.2976 13.3018C11.1337 13.4209 10.9382 13.4889 10.7358 13.497C10.5333 13.5051 10.333 13.4531 10.1601 13.3474L7.00387 11.4049L3.84574 13.3474C3.67288 13.4525 3.47281 13.504 3.2707 13.4956C3.0686 13.4872 2.87351 13.4191 2.70999 13.3001C2.54648 13.181 2.42185 13.0162 2.35181 12.8264C2.28176 12.6367 2.26943 12.4304 2.31637 12.2337L3.17637 8.60429L0.363867 6.17741C0.210928 6.04523 0.10032 5.87092 0.0458563 5.67626C-0.00860769 5.48159 -0.00451379 5.27519 0.0576267 5.08283C0.119767 4.89048 0.2372 4.72069 0.39526 4.59468C0.55332 4.46867 0.745002 4.39201 0.946367 4.37429L4.63387 4.07679L6.05637 0.634288C6.13336 0.446674 6.26441 0.286193 6.43285 0.173249C6.60128 0.0603055 6.7995 0 7.0023 0C7.2051 0 7.40332 0.0603055 7.57176 0.173249C7.7402 0.286193 7.87124 0.446674 7.94824 0.634288L9.37011 4.07679L13.0576 4.37429C13.2594 4.39135 13.4516 4.46758 13.6103 4.59342C13.7689 4.71926 13.8869 4.88911 13.9494 5.0817C14.0119 5.27429 14.0162 5.48105 13.9618 5.67607C13.9073 5.87109 13.7965 6.04571 13.6432 6.17804L13.647 6.17741Z" fill="#E8BB41"/>
</svg>
